<svg xmlns="http://www.w3.org/2000/svg" width="1200" height="760" viewBox="0 0 1200 760" role="img" aria-labelledby="title desc">
  <title id="title">PlanIT tasks and calendar page</title>
  <desc id="desc">A visual guide showing the task page with a calendar, scheduled and to-do tabs, status filters, and ranked task cards.</desc>
  <defs>
    <linearGradient id="page" x1="0" x2="1" y1="0" y2="1">
      <stop offset="0" stop-color="#ecfdf5"/>
      <stop offset="1" stop-color="#10b981"/>
    </linearGradient>
    <filter id="shadow" x="-20%" y="-20%" width="140%" height="140%">
      <feDropShadow dx="0" dy="16" stdDeviation="18" flood-color="#064e3b" flood-opacity="0.15"/>
    </filter>
  </defs>
  <rect width="1200" height="760" fill="url(#page)"/>
  <rect width="1200" height="70" fill="#ffffff"/>
  <rect x="84" y="19" width="34" height="34" rx="10" fill="#059669"/>
  <text x="101" y="42" fill="#ffffff" font-size="20" font-weight="700" text-anchor="middle" font-family="Arial, sans-serif">P</text>
  <text x="130" y="41" fill="#065f46" font-size="22" font-weight="700" font-family="Arial, sans-serif">PlanIT</text>
  <text x="720" y="41" fill="#334155" font-size="15" font-family="Arial, sans-serif">Dashboard</text>
  <text x="810" y="41" fill="#047857" font-size="15" font-family="Arial, sans-serif">Tasks</text>
  <text x="870" y="41" fill="#334155" font-size="15" font-family="Arial, sans-serif">Tutorial</text>

  <text x="90" y="124" fill="#065f46" font-size="36" font-weight="800" font-family="Arial, sans-serif">Tasks</text>
  <text x="90" y="152" fill="#475569" font-size="16" font-family="Arial, sans-serif">Scheduled tasks appear on the calendar. To-do tasks stay flexible.</text>

  <g filter="url(#shadow)">
    <rect x="90" y="188" width="320" height="500" rx="20" fill="#ffffff"/>
    <rect x="440" y="188" width="670" height="500" rx="20" fill="#ffffff"/>
  </g>

  <text x="118" y="230" fill="#065f46" font-size="18" font-weight="800" font-family="Arial, sans-serif">April 2026</text>
  <rect x="300" y="210" width="72" height="28" rx="14" fill="#ecfdf5" stroke="#a7f3d0"/>
  <text x="336" y="229" fill="#047857" font-size="12" font-weight="700" text-anchor="middle" font-family="Arial, sans-serif">Next</text>
  <g fill="#64748b" font-size="12" font-weight="700" text-anchor="middle" font-family="Arial, sans-serif">
    <text x="126" y="272">Sun</text><text x="168" y="272">Mon</text><text x="210" y="272">Tue</text><text x="252" y="272">Wed</text><text x="294" y="272">Thu</text><text x="336" y="272">Fri</text><text x="378" y="272">Sat</text>
  </g>
  <g font-family="Arial, sans-serif" font-size="13" text-anchor="middle">
    <circle cx="126" cy="312" r="18" fill="#ffffff"/><text x="126" y="317" fill="#475569">5</text>
    <circle cx="168" cy="312" r="18" fill="#ffffff"/><text x="168" y="317" fill="#475569">6</text>
    <circle cx="210" cy="312" r="18" fill="#ecfdf5" stroke="#34d399"/><text x="210" y="317" fill="#065f46">7</text>
    <circle cx="252" cy="312" r="18" fill="#059669"/><text x="252" y="317" fill="#ffffff" font-weight="800">8</text>
    <circle cx="294" cy="312" r="18" fill="#ffffff"/><text x="294" y="317" fill="#475569">9</text>
    <circle cx="336" cy="312" r="18" fill="#ffffff"/><text x="336" y="317" fill="#475569">10</text>
    <circle cx="378" cy="312" r="18" fill="#ffffff"/><text x="378" y="317" fill="#475569">11</text>

    <circle cx="126" cy="362" r="18" fill="#ffffff"/><text x="126" y="367" fill="#475569">12</text>
    <circle cx="168" cy="362" r="18" fill="#ffffff"/><text x="168" y="367" fill="#475569">13</text>
    <circle cx="210" cy="362" r="18" fill="#ffffff"/><text x="210" y="367" fill="#475569">14</text>
    <circle cx="252" cy="362" r="18" fill="#ecfdf5"/><text x="252" y="367" fill="#065f46">15</text>
    <circle cx="294" cy="362" r="18" fill="#ffffff"/><text x="294" y="367" fill="#475569">16</text>
    <circle cx="336" cy="362" r="18" fill="#ffffff"/><text x="336" y="367" fill="#475569">17</text>
    <circle cx="378" cy="362" r="18" fill="#ffffff"/><text x="378" y="367" fill="#475569">18</text>
  </g>
  <g fill="#10b981">
    <circle cx="252" cy="336" r="4"/>
    <circle cx="210" cy="336" r="4"/>
    <circle cx="252" cy="386" r="4"/>
  </g>
  <rect x="118" y="454" width="120" height="30" rx="15" fill="#ecfdf5" stroke="#a7f3d0"/>
  <text x="178" y="474" fill="#047857" font-size="12" font-weight="700" text-anchor="middle" font-family="Arial, sans-serif">Show all</text>
  <rect x="246" y="454" width="126" height="30" rx="15" fill="#059669"/>
  <text x="309" y="474" fill="#ffffff" font-size="12" font-weight="700" text-anchor="middle" font-family="Arial, sans-serif">Add task</text>
  <text x="118" y="535" fill="#475569" font-size="13" font-family="Arial, sans-serif">Green dots show active scheduled days.</text>
  <text x="118" y="560" fill="#475569" font-size="13" font-family="Arial, sans-serif">Select a date to filter the list.</text>

  <rect x="475" y="222" width="252" height="40" rx="20" fill="#ecfdf5"/>
  <rect x="480" y="227" width="140" height="30" rx="15" fill="#059669"/>
  <text x="550" y="247" fill="#ffffff" font-size="13" font-weight="800" text-anchor="middle" font-family="Arial, sans-serif">Scheduled</text>
  <text x="672" y="247" fill="#047857" font-size="13" font-weight="700" text-anchor="middle" font-family="Arial, sans-serif">To-Do Tasks</text>
  <rect x="962" y="220" width="110" height="40" rx="12" fill="#059669"/>
  <text x="1017" y="246" fill="#ffffff" font-size="14" font-weight="800" text-anchor="middle" font-family="Arial, sans-serif">+ New task</text>

  <text x="475" y="296" fill="#64748b" font-size="13" font-family="Arial, sans-serif">Status:</text>
  <rect x="532" y="278" width="72" height="28" rx="14" fill="#059669"/>
  <text x="568" y="297" fill="#ffffff" font-size="12" font-weight="700" text-anchor="middle" font-family="Arial, sans-serif">Pending</text>
  <rect x="614" y="278" width="50" height="28" rx="14" fill="#ffffff" stroke="#a7f3d0"/>
  <text x="639" y="297" fill="#047857" font-size="12" font-weight="700" text-anchor="middle" font-family="Arial, sans-serif">All</text>
  <rect x="674" y="278" width="92" height="28" rx="14" fill="#ffffff" stroke="#a7f3d0"/>
  <text x="720" y="297" fill="#047857" font-size="12" font-weight="700" text-anchor="middle" font-family="Arial, sans-serif">Completed</text>
  <rect x="776" y="278" width="70" height="28" rx="14" fill="#ffffff" stroke="#a7f3d0"/>
  <text x="811" y="297" fill="#047857" font-size="12" font-weight="700" text-anchor="middle" font-family="Arial, sans-serif">Missed</text>

  <circle cx="496" cy="363" r="18" fill="#ef4444"/>
  <text x="496" y="369" fill="#ffffff" font-size="15" font-weight="800" text-anchor="middle" font-family="Arial, sans-serif">1</text>
  <rect x="532" y="330" width="520" height="76" rx="14" fill="#f8fafc" stroke="#d1fae5"/>
  <text x="558" y="360" fill="#111827" font-size="18" font-weight="800" font-family="Arial, sans-serif">Review research chapter</text>
  <text x="558" y="385" fill="#64748b" font-size="13" font-family="Arial, sans-serif">Apr 8, 9:00 AM to 11:30 AM - Priority score 94</text>
  <rect x="920" y="348" width="80" height="28" rx="14" fill="#fef3c7"/>
  <text x="960" y="367" fill="#92400e" font-size="12" font-weight="700" text-anchor="middle" font-family="Arial, sans-serif">Urgent</text>

  <circle cx="496" cy="465" r="18" fill="#059669"/>
  <text x="496" y="471" fill="#ffffff" font-size="15" font-weight="800" text-anchor="middle" font-family="Arial, sans-serif">2</text>
  <rect x="532" y="432" width="520" height="76" rx="14" fill="#f8fafc" stroke="#d1fae5"/>
  <text x="558" y="462" fill="#111827" font-size="18" font-weight="800" font-family="Arial, sans-serif">Prepare presentation slides</text>
  <text x="558" y="487" fill="#64748b" font-size="13" font-family="Arial, sans-serif">Apr 8, 1:00 PM to 3:00 PM - Recommended break 24 min</text>
  <rect x="890" y="450" width="110" height="28" rx="14" fill="#dbeafe"/>
  <text x="945" y="469" fill="#1d4ed8" font-size="12" font-weight="700" text-anchor="middle" font-family="Arial, sans-serif">Can split</text>

  <circle cx="496" cy="567" r="18" fill="#059669"/>
  <text x="496" y="573" fill="#ffffff" font-size="15" font-weight="800" text-anchor="middle" font-family="Arial, sans-serif">3</text>
  <rect x="532" y="534" width="520" height="76" rx="14" fill="#f8fafc" stroke="#d1fae5"/>
  <text x="558" y="564" fill="#111827" font-size="18" font-weight="800" font-family="Arial, sans-serif">Clean study desk</text>
  <text x="558" y="589" fill="#64748b" font-size="13" font-family="Arial, sans-serif">To-do task - Flexible timing - No calendar date</text>
  <rect x="910" y="552" width="90" height="28" rx="14" fill="#dcfce7"/>
  <text x="955" y="571" fill="#166534" font-size="12" font-weight="700" text-anchor="middle" font-family="Arial, sans-serif">To-Do</text>
</svg>
